<?xml version="1.0" encoding="UTF-8" standalone="no"?>
<!-- Created with Inkscape (http://www.inkscape.org/) -->

<svg
   xmlns:dc="http://purl.org/dc/elements/1.1/"
   xmlns:cc="http://creativecommons.org/ns#"
   xmlns:rdf="http://www.w3.org/1999/02/22-rdf-syntax-ns#"
   xmlns:svg="http://www.w3.org/2000/svg"
   xmlns="http://www.w3.org/2000/svg"
   xmlns:sodipodi="http://sodipodi.sourceforge.net/DTD/sodipodi-0.dtd"
   xmlns:inkscape="http://www.inkscape.org/namespaces/inkscape"
   id="svg3504"
   version="1.1"
   inkscape:version="0.91 r13725"
   width="288.7056"
   height="173.27119"
   viewBox="0 0 288.70559 173.27119"
   sodipodi:docname="logo.svg">
  <metadata
     id="metadata3510">
    <rdf:RDF>
      <cc:Work
         rdf:about="">
        <dc:format>image/svg+xml</dc:format>
        <dc:type
           rdf:resource="http://purl.org/dc/dcmitype/StillImage" />
        <dc:title></dc:title>
      </cc:Work>
    </rdf:RDF>
  </metadata>
  <defs
     id="defs3508" />
  <sodipodi:namedview
     pagecolor="#ffffff"
     bordercolor="#666666"
     borderopacity="1"
     objecttolerance="10"
     gridtolerance="10"
     guidetolerance="10"
     inkscape:pageopacity="0"
     inkscape:pageshadow="2"
     inkscape:window-width="1918"
     inkscape:window-height="1054"
     id="namedview3506"
     showgrid="false"
     inkscape:zoom="2.3087993"
     inkscape:cx="141.77904"
     inkscape:cy="71.844186"
     inkscape:window-x="0"
     inkscape:window-y="1104"
     inkscape:window-maximized="1"
     inkscape:current-layer="svg3504"
     fit-margin-top="0"
     fit-margin-left="0"
     fit-margin-right="0"
     fit-margin-bottom="0" />
  <g
     inkscape:groupmode="layer"
     id="layer9"
     inkscape:label="back"
     style="display:none"
     transform="matrix(0.94790693,0,0,0.8453018,0,31.710262)"
     sodipodi:insensitive="true">
    <rect
       style="color:#000000;clip-rule:nonzero;display:inline;overflow:visible;visibility:visible;opacity:1;isolation:auto;mix-blend-mode:normal;color-interpolation:sRGB;color-interpolation-filters:linearRGB;solid-color:#000000;solid-opacity:1;fill:#fdf6e3;fill-opacity:1;fill-rule:evenodd;stroke:none;stroke-width:0.75;stroke-linecap:butt;stroke-linejoin:round;stroke-miterlimit:4;stroke-dasharray:4.5, 4.5;stroke-dashoffset:0;stroke-opacity:1;color-rendering:auto;image-rendering:auto;shape-rendering:auto;text-rendering:auto;enable-background:accumulate"
       id="rect4542"
       width="304.57166"
       height="204.98146"
       x="0"
       y="-37.513538" />
  </g>
  <g
     inkscape:groupmode="layer"
     id="layer10"
     inkscape:label="sofa"
     style="display:inline"
     sodipodi:insensitive="true">
    <path
       style="fill:#657b83;fill-opacity:1;fill-rule:evenodd;stroke:none;stroke-width:1px;stroke-linecap:butt;stroke-linejoin:miter;stroke-opacity:1"
       d="M 74.15625,23.278018 6.4785156,54.545596 61.822266,113.11396 l 1.171875,26.07422 10.230468,1.27929 1.765625,-24.86328 59.238286,9.79688 38.40625,38.5039 35.50781,-34.66406 -50.55274,-42.050783 -54.21875,-1.08203 -29.21484,-62.830079 z m 54.38086,105.273442 1.15039,24.61914 10.88672,3.34961 0.16406,-23.53711 -12.20117,-4.43164 z"
       id="path4343"
       inkscape:connector-curvature="0" />
  </g>
  <g
     inkscape:groupmode="layer"
     id="layer5"
     inkscape:label="plaid"
     style="display:inline;opacity:1"
     sodipodi:insensitive="true">
    <path
       style="display:inline;opacity:1;fill:#6c71c4;fill-rule:evenodd;stroke:none;stroke-width:1px;stroke-linecap:butt;stroke-linejoin:miter;stroke-opacity:1"
       d="m 52.043645,64.725308 3.382438,20.128959 -13.184605,20.998733 79.107622,26.09309 37.13779,34.79079 41.25769,-56.20172 c 0,0 -37.32302,-37.112153 -39.73904,-38.354683 -2.41603,-1.24253 -43.14334,8.20069 -43.14334,8.20069 L 72.338272,50.808998 Z"
       id="path4452"
       inkscape:connector-curvature="0"
       sodipodi:nodetypes="ccccccsccc" />
    <path
       style="display:inline;opacity:1;fill:#d33682;fill-rule:evenodd;stroke:none;stroke-width:1px;stroke-linecap:butt;stroke-linejoin:miter;stroke-opacity:1"
       d="M 98.646631,116.35037 61.283667,95.634817 58.682385,83.145827 Z"
       id="path4458"
       inkscape:connector-curvature="0"
       sodipodi:nodetypes="cccc" />
    <path
       style="display:inline;opacity:1;fill:#d33682;fill-rule:evenodd;stroke:none;stroke-width:1px;stroke-linecap:butt;stroke-linejoin:miter;stroke-opacity:1"
       d="m 134.49829,109.14635 33.16288,31.94365 -7.59077,10.86392 -23.55074,-23.75165 -28.07324,-9.91892 z"
       id="path4475"
       inkscape:connector-curvature="0"
       sodipodi:nodetypes="cccccc" />
    <path
       style="display:inline;opacity:1;fill:#d33682;fill-rule:evenodd;stroke:none;stroke-width:1px;stroke-linecap:butt;stroke-linejoin:miter;stroke-opacity:1"
       d="m 173.92923,135.62904 5.10056,-5.08017 2.48227,10.40515 z"
       id="path4522"
       inkscape:connector-curvature="0" />
    <path
       style="display:inline;opacity:1;fill:#d33682;fill-rule:evenodd;stroke:none;stroke-width:1px;stroke-linecap:butt;stroke-linejoin:miter;stroke-opacity:1"
       d="m 187.05468,121.00062 5.67862,-7.83447 3.06034,7.09999 z"
       id="path4524"
       inkscape:connector-curvature="0" />
  </g>
  <g
     inkscape:groupmode="layer"
     id="layer7"
     inkscape:label="body"
     style="display:inline"
     sodipodi:insensitive="true">
    <path
       style="display:inline;fill:#cb4b16;fill-rule:evenodd;stroke:none;stroke-width:1px;stroke-linecap:butt;stroke-linejoin:miter;stroke-opacity:1"
       d="m 63.145529,26.067988 -30.46875,21.667972 14.58789,49.271477 26.705078,16.369143 3.394532,-9.94922 -20,-16.212893 L 54.643575,67.50549 68.450216,55.01916 77.188497,65.609 106.39748,79.013297 113.02834,69.771107 84.295919,54.71447 63.145529,26.067988 Z"
       id="path4520"
       inkscape:connector-curvature="0" />
    <path
       style="display:inline;fill:#eee8d5;fill-rule:evenodd;stroke:none;stroke-width:1px;stroke-linecap:butt;stroke-linejoin:miter;stroke-opacity:1"
       d="m 78.219747,104.02307 -3.375,9.88867 8.667969,5.31445 9.658203,-4.04101 -9.148437,-5.08008 2.041015,-2.08008 -7.84375,-4.00195 z"
       id="path4489"
       inkscape:connector-curvature="0" />
    <path
       style="display:inline;fill:#002b36;fill-rule:evenodd;stroke:none;stroke-width:1px;stroke-linecap:butt;stroke-linejoin:miter;stroke-opacity:1"
       d="m 172.63708,139.24023 5.74663,10.34395 10.06512,-11.26205 -6.56273,-7.71205 z"
       id="path4491"
       inkscape:connector-curvature="0" />
    <path
       style="display:inline;fill:#002b36;fill-rule:evenodd;stroke:none;stroke-width:1px;stroke-linecap:butt;stroke-linejoin:miter;stroke-opacity:1"
       d="m 194.52575,112.70981 10.94102,4.50724 -10.01775,11.30421 -8.42162,-5.62328 z"
       id="path4491-6"
       inkscape:connector-curvature="0" />
  </g>
  <g
     inkscape:groupmode="layer"
     id="layer3"
     inkscape:label="sign"
     style="display:inline"
     sodipodi:insensitive="true">
    <path
       style="display:inline;fill:#859900;fill-rule:evenodd;stroke:none;stroke-width:1px;stroke-linecap:butt;stroke-linejoin:miter;stroke-opacity:1"
       d="m 208.34577,108.23218 21.32036,-4.34568 7.95688,44.80335 -9.55505,1.04052 z"
       id="path4411"
       inkscape:connector-curvature="0"
       sodipodi:nodetypes="ccccc" />
    <path
       style="display:inline;fill:#b58900;fill-rule:evenodd;stroke:none;stroke-width:1px;stroke-linecap:butt;stroke-linejoin:miter;stroke-opacity:1"
       d="m 159.34636,51.126264 123.39964,-1.40776 -9.86109,56.371436 -102.92938,7.09999 z"
       id="path4407"
       inkscape:connector-curvature="0" />
    <text
       xml:space="preserve"
       style="font-style:normal;font-variant:normal;font-weight:normal;font-stretch:normal;font-size:22.5px;line-height:125%;font-family:Ubuntu Mono;-inkscape-font-specification:'Ubuntu, Normal';text-align:center;letter-spacing:0px;word-spacing:0px;writing-mode:lr-tb;text-anchor:middle;display:inline;fill:#002b36;fill-opacity:1;stroke:none;stroke-width:1px;stroke-linecap:butt;stroke-linejoin:miter;stroke-opacity:1"
       x="220.22937"
       y="71.591545"
       id="text4213"
       sodipodi:linespacing="125%"><tspan
         sodipodi:role="line"
         x="220.22937"
         y="71.591545"
         id="tspan4219"
         style="font-style:normal;font-variant:normal;font-weight:normal;font-stretch:normal;font-size:22.5px;font-family:'Ubuntu Mono';-inkscape-font-specification:'Ubuntu Mono';fill:#002b36">Work in</tspan><tspan
         sodipodi:role="line"
         x="220.22937"
         y="99.716545"
         id="tspan4226"
         style="font-style:normal;font-variant:normal;font-weight:normal;font-stretch:normal;font-size:22.5px;font-family:'Ubuntu Mono';-inkscape-font-specification:'Ubuntu Mono';fill:#002b36">progress</tspan></text>
  </g>
  <g
     inkscape:groupmode="layer"
     id="layer2"
     inkscape:label="laptop"
     style="display:inline"
     sodipodi:insensitive="true">
    <path
       style="display:inline;fill:#839496;fill-rule:evenodd;stroke:none;stroke-width:1px;stroke-linecap:butt;stroke-linejoin:miter;stroke-opacity:1"
       d="m 101.88943,58.452398 16.62784,14.138769 27.203,-1.89741 L 120.72751,101.7868 96.142795,100.37904 74.822438,85.138547 Z"
       id="path3535"
       inkscape:connector-curvature="0" />
    <path
       style="display:inline;fill:#268bd2;fill-rule:evenodd;stroke:none;stroke-width:1px;stroke-linecap:butt;stroke-linejoin:miter;stroke-opacity:1"
       d="m 117.14153,74.862617 -19.297129,23.25857 21.949419,1.36185 21.12485,-26.16589 z"
       id="path3537"
       inkscape:connector-curvature="0"
       sodipodi:nodetypes="ccccc" />
    <path
       style="display:inline;fill:#657b83;fill-opacity:1;fill-rule:evenodd;stroke:none;stroke-width:1px;stroke-linecap:butt;stroke-linejoin:miter;stroke-opacity:1"
       d="m 102.23928,61.075798 -2.597659,2.5625 1.576169,1.58789 2.64453,-2.75195 -1.62304,-1.39844 z m 2.38086,2.05274 -2.69727,2.80859 2.27734,2.29687 2.73047,-3.11328 -2.31054,-1.99218 z m -5.691409,1.21289 -3.498046,3.45117 1.61914,1.773439 3.474605,-3.617189 -1.595699,-1.60742 z m 8.757809,1.43359 -2.77929,3.169919 2.68359,2.70703 2.80664,-3.539059 -2.71094,-2.33789 z m -6.45703,0.88476 -3.503903,3.648439 2.373043,2.60352 3.44141,-3.92383 -2.31055,-2.328129 z m -6.511716,1.835939 -3.814453,3.76172 c 0.310367,0.32225 0.539439,0.56181 0.916016,0.95117 0.238765,0.24688 0.608571,0.62745 0.86914,0.89649 l 3.666016,-3.81641 -1.636719,-1.79297 z m 16.437496,0.27149 -2.85547,3.59961 4.68555,4.72461 3.32227,-3.88086 -5.15235,-4.44336 z m -6.91015,0.93359 -3.4668,3.95508 2.79297,3.0625 3.39258,-4.27734 -2.71875,-2.74024 z m -7.214846,1.33008 -3.644531,3.79297 c 0.838082,0.86458 1.70248,1.75466 2.646484,2.72656 l 3.404294,-3.88281 -2.406247,-2.63672 z m -6.839844,1.92969 -3.326171,3.28125 c 0.212029,0.21314 0.339932,0.33958 0.574218,0.57617 0.369599,0.37322 0.920583,0.94005 1.335938,1.36133 l 3.220703,-3.35352 c -0.268701,-0.27742 -0.64881,-0.66781 -0.894531,-0.92187 -0.373515,-0.38621 -0.601286,-0.62319 -0.910157,-0.94336 z m 17.48437,0.19531 -3.41992,4.3125 4.33594,4.7539 3.74219,-4.36914 -4.65821,-4.69726 z m -7.56054,1.25586 -3.382814,3.85937 c 0.274165,0.28218 0.484612,0.50008 0.759766,0.78321 1.168339,1.20218 1.259049,1.29349 2.330079,2.39453 l 3.121089,-3.9375 -2.82812,-3.09961 z m -7.421877,1.13281 -3.214843,3.34766 c 0.92402,0.93884 1.822807,1.85217 2.841797,2.89257 l 3.050781,-3.48046 c -0.956337,-0.98456 -1.828026,-1.88323 -2.677735,-2.75977 z m -6.541015,1.40039 -3.761719,3.71289 c 0.132786,0.11111 0.20464,0.16845 0.34375,0.28516 0.519352,0.43572 1.2729,1.08317 1.865234,1.58398 l 3.482422,-3.62695 c -0.420913,-0.42679 -0.979712,-0.99948 -1.353515,-1.37695 -0.23547,-0.23778 -0.363309,-0.36393 -0.576172,-0.57813 z m 17.474612,1.31641 -3.10157,3.91015 c 1.86039,1.91212 3.89136,4.00111 4.3125,4.4336 l 3.09961,-3.61719 -4.31054,-4.72656 z m -7.556643,0.76367 -3.046875,3.47461 c 0.139635,0.14269 0.247044,0.25173 0.386718,0.39453 1.459433,1.49206 1.617528,1.66055 2.902344,2.97852 l 2.882817,-3.63477 c -1.1046,-1.13527 -1.20664,-1.23789 -2.419926,-2.48633 -0.255249,-0.26264 -0.450595,-0.46464 -0.705078,-0.72656 z m -7.28711,0.58984 -3.419922,3.56055 c 1.08475,0.91927 2.10976,1.78471 3.289063,2.79102 l 3.005859,-3.42774 c -1.03164,-1.05313 -1.939563,-1.97376 -2.875,-2.92383 z m -7.109375,1.74805 -3.568359,3.52148 2.529297,1.77149 3.271484,-3.40625 c -0.574415,-0.48569 -1.310019,-1.11781 -1.814453,-1.54102 -0.169454,-0.14216 -0.257991,-0.21204 -0.417969,-0.3457 z m 18.224606,1.59766 -2.880856,3.63281 c 1.713389,1.75861 3.802008,3.90082 4.167968,4.27734 l 3,-3.5039 c -0.3892,-0.3995 -2.45536,-2.52411 -4.287112,-4.40625 z m -7.537106,0.29297 -2.945312,3.35937 c 0.0676,0.0577 0.11991,0.1024 0.1875,0.16016 1.797485,1.53592 2.020045,1.73451 3.566406,3.0625 l 2.517578,-3.17383 c -1.313168,-1.34716 -1.488341,-1.5309 -2.992187,-3.06836 -0.120525,-0.12322 -0.213472,-0.2167 -0.333985,-0.33984 z m -7.691406,0.64453 -3.207031,3.33789 3.763672,2.63672 2.765625,-3.1543 c -1.191736,-1.01701 -2.228908,-1.89364 -3.322266,-2.82031 z m 4.085937,3.46679 -2.705078,3.08594 4.263672,2.98633 2.234375,-2.81836 c -1.554033,-1.33452 -1.783068,-1.53678 -3.59375,-3.08399 -0.07179,-0.0613 -0.127408,-0.10857 -0.199219,-0.16992 z m 7.634766,0.0195 -2.460937,3.10352 c 1.756366,1.50946 3.909929,3.35438 4.371089,3.75195 l 2.232429,-2.60742 c -0.3358,-0.3455 -2.458879,-2.51978 -4.142581,-4.24805 z m -3.082031,3.88672 -2.173828,2.74024 4.601562,3.22265 1.914063,-2.23437 c -0.457572,-0.39443 -2.602387,-2.23371 -4.341797,-3.72852 z"
       id="path4339"
       inkscape:connector-curvature="0" />
    <path
       style="display:inline;fill:#2aa198;fill-opacity:1;fill-rule:evenodd;stroke:none;stroke-width:1px;stroke-linecap:butt;stroke-linejoin:miter;stroke-opacity:1"
       d="m 117.59788,75.278967 22.18075,-1.20986 -19.97868,24.65807 z"
       id="path4404"
       inkscape:connector-curvature="0" />
  </g>
  <g
     inkscape:groupmode="layer"
     id="layer4"
     inkscape:label="smoothie"
     style="display:inline"
     sodipodi:insensitive="true">
    <path
       style="display:inline;fill:#586e75;fill-rule:evenodd;stroke:none;stroke-width:1px;stroke-linecap:butt;stroke-linejoin:miter;stroke-opacity:1"
       d="m 31.256411,135.65608 18.654464,1.06192 -7.182995,18.46594 -10.926301,1.22093 z"
       id="path4441"
       inkscape:connector-curvature="0"
       sodipodi:nodetypes="ccccc" />
    <path
       style="display:inline;fill:#b58900;fill-rule:evenodd;stroke:none;stroke-width:1px;stroke-linecap:butt;stroke-linejoin:miter;stroke-opacity:1"
       d="m 32.10785,136.44848 0.207447,18.9558 9.908657,-0.76878 6.699326,-16.93501 z"
       id="path4443"
       inkscape:connector-curvature="0" />
    <path
       style="display:inline;fill:#859900;fill-rule:evenodd;stroke:none;stroke-width:1px;stroke-linecap:butt;stroke-linejoin:miter;stroke-opacity:1"
       d="m 40.283712,128.54108 -1.744997,11.8611 12.971554,0.59306 1.452131,-11.59753 z"
       id="path4445"
       inkscape:connector-curvature="0" />
    <path
       style="display:inline;fill:#586e75;fill-rule:evenodd;stroke:none;stroke-width:1px;stroke-linecap:butt;stroke-linejoin:miter;stroke-opacity:1"
       d="m 34.353162,121.57817 2.245311,0.022 0.988425,32.20069 -1.293495,0.32948 z"
       id="path4449"
       inkscape:connector-curvature="0" />
  </g>
  <g
     inkscape:groupmode="layer"
     id="layer6"
     inkscape:label="head"
     style="display:inline"
     sodipodi:insensitive="true">
    <path
       style="display:inline;fill:#eee8d5;fill-rule:evenodd;stroke:none;stroke-width:1px;stroke-linecap:butt;stroke-linejoin:miter;stroke-opacity:1"
       d="m 49.203439,21.294798 13.193458,-3.917233 9.045,11.017218 -5.406597,17.015489 -4.862538,-2.14224 -5.746635,6.12068 -10.303139,-6.42671 z"
       id="path4484"
       inkscape:connector-curvature="0" />
    <path
       style="display:inline;fill:#002b36;fill-rule:evenodd;stroke:none;stroke-width:1px;stroke-linecap:butt;stroke-linejoin:miter;stroke-opacity:1"
       d="m 58.146428,27.782715 -6.222688,1.774997 0.238026,5.998263 -9.283026,9.670677 -0.374041,-15.424113 -7.276805,-2.509478 11.255244,-9.915496 2.822312,-10.649977 11.629286,5.447402 4.488496,-4.712921 5.780639,10.527564 10.745188,2.937925 -8.806974,10.649977 z"
       id="path4486"
       inkscape:connector-curvature="0" />
  </g>
</svg>
